<?xml version="1.0" encoding="UTF-8" standalone="no"?>
<!-- Created with Inkscape (http://www.inkscape.org/) -->

<svg
   xmlns:dc="http://purl.org/dc/elements/1.1/"
   xmlns:cc="http://creativecommons.org/ns#"
   xmlns:rdf="http://www.w3.org/1999/02/22-rdf-syntax-ns#"
   xmlns:svg="http://www.w3.org/2000/svg"
   xmlns="http://www.w3.org/2000/svg"
   xmlns:sodipodi="http://sodipodi.sourceforge.net/DTD/sodipodi-0.dtd"
   xmlns:inkscape="http://www.inkscape.org/namespaces/inkscape"
   id="svg2"
   version="1.1"
   inkscape:version="0.48.2 r9819"
   width="37.5"
   height="37.5"
   xml:space="preserve"
   sodipodi:docname="-+_icon.ai"><metadata
     id="metadata8"><rdf:RDF><cc:Work
         rdf:about=""><dc:format>image/svg+xml</dc:format><dc:type
           rdf:resource="http://purl.org/dc/dcmitype/StillImage" /><dc:title></dc:title></cc:Work></rdf:RDF></metadata><defs
     id="defs6"><clipPath
       clipPathUnits="userSpaceOnUse"
       id="clipPath16"><path
         d="M 0,30 30,30 30,0 0,0 0,30 z"
         id="path18" /></clipPath></defs><sodipodi:namedview
     pagecolor="#ffffff"
     bordercolor="#666666"
     borderopacity="1"
     objecttolerance="10"
     gridtolerance="10"
     guidetolerance="10"
     inkscape:pageopacity="0"
     inkscape:pageshadow="2"
     inkscape:window-width="640"
     inkscape:window-height="480"
     id="namedview4"
     showgrid="false"
     inkscape:zoom="6.2933333"
     inkscape:cx="18.75"
     inkscape:cy="18.75"
     inkscape:window-x="0"
     inkscape:window-y="0"
     inkscape:window-maximized="0"
     inkscape:current-layer="g10" /><g
     id="g10"
     inkscape:groupmode="layer"
     inkscape:label="-+_icon"
     transform="matrix(1.25,0,0,-1.25,0,37.5)"><g
       id="g12"><g
         id="g14"
         clip-path="url(#clipPath16)"><g
           id="g20"
           transform="translate(18.5402,20.4907)"><path
             d="m 0,0 c 0,0.191 -0.177,0.432 -0.561,0.432 -0.255,0 -0.416,-0.144 -0.56,-0.48 l -4.258,-10.213 c -0.176,-0.431 -0.224,-0.592 -0.224,-0.719 0,-0.208 0.176,-0.433 0.529,-0.433 0.288,0 0.448,0.144 0.592,0.48 l 4.257,10.212 C -0.049,-0.272 0,-0.128 0,0"
             style="fill:#e6e6e5;fill-opacity:1;fill-rule:nonzero;stroke:none"
             id="path22" /></g><g
           id="g24"
           transform="translate(18.2965,11.4839)"><path
             d="m 0,0 c -0.336,0 -0.608,0.272 -0.608,0.608 0,0.337 0.272,0.609 0.608,0.609 l 3.298,0 C 3.634,1.217 3.906,0.945 3.906,0.608 3.906,0.272 3.634,0 3.298,0 L 0,0 z"
             style="fill:#e6e6e5;fill-opacity:1;fill-rule:nonzero;stroke:none"
             id="path26" /></g><g
           id="g28"
           transform="translate(10.4897,19.3136)"><path
             d="M 0,0 C 0,0.399 0.208,0.687 0.656,0.687 1.104,0.687 1.312,0.399 1.312,0 l 0,-2.005 2.006,0 c 0.4,0 0.688,-0.209 0.688,-0.656 0,-0.45 -0.288,-0.657 -0.688,-0.657 l -2.006,0 0,-2.005 c 0,-0.4 -0.208,-0.689 -0.656,-0.689 C 0.208,-6.012 0,-5.723 0,-5.323 l 0,2.005 -2.005,0 c -0.399,0 -0.688,0.207 -0.688,0.657 0,0.447 0.289,0.656 0.688,0.656 L 0,-2.005 0,0 z"
             style="fill:#e6e6e5;fill-opacity:1;fill-rule:nonzero;stroke:none"
             id="path30" /></g></g></g></g></svg>