<?xml version="1.0" encoding="UTF-8" standalone="no"?>
<!-- Created with Inkscape (http://www.inkscape.org/) -->

<svg
   xmlns:dc="http://purl.org/dc/elements/1.1/"
   xmlns:cc="http://creativecommons.org/ns#"
   xmlns:rdf="http://www.w3.org/1999/02/22-rdf-syntax-ns#"
   xmlns:svg="http://www.w3.org/2000/svg"
   xmlns="http://www.w3.org/2000/svg"
   xmlns:sodipodi="http://sodipodi.sourceforge.net/DTD/sodipodi-0.dtd"
   xmlns:inkscape="http://www.inkscape.org/namespaces/inkscape"
   id="svg3029"
   version="1.1"
   inkscape:version="0.48.2 r9819"
   width="27.5"
   height="27.5"
   xml:space="preserve"
   sodipodi:docname="dizmoIcon-calculator-light.ai"><metadata
     id="metadata3035"><rdf:RDF><cc:Work
         rdf:about=""><dc:format>image/svg+xml</dc:format><dc:type
           rdf:resource="http://purl.org/dc/dcmitype/StillImage" /><dc:title></dc:title></cc:Work></rdf:RDF></metadata><defs
     id="defs3033"><clipPath
       clipPathUnits="userSpaceOnUse"
       id="clipPath3043"><path
         d="M 0,22 22,22 22,0 0,0 0,22 z"
         id="path3045" /></clipPath></defs><sodipodi:namedview
     pagecolor="#ffffff"
     bordercolor="#666666"
     borderopacity="1"
     objecttolerance="10"
     gridtolerance="10"
     guidetolerance="10"
     inkscape:pageopacity="0"
     inkscape:pageshadow="2"
     inkscape:window-width="640"
     inkscape:window-height="480"
     id="namedview3031"
     showgrid="false"
     inkscape:zoom="8.5818182"
     inkscape:cx="13.75"
     inkscape:cy="13.75"
     inkscape:window-x="0"
     inkscape:window-y="22"
     inkscape:window-maximized="0"
     inkscape:current-layer="g3037" /><g
     id="g3037"
     inkscape:groupmode="layer"
     inkscape:label="dizmoIcon-calculator-light"
     transform="matrix(1.25,0,0,-1.25,0,27.5)"><g
       id="g3039"><g
         id="g3041"
         clip-path="url(#clipPath3043)"><g
           id="g3047"
           transform="translate(10.4284,13.6704)"><path
             d="M 0,0 C 0,0.091 0.004,0.182 -0.001,0.272 -0.01,0.416 -0.095,0.512 -0.236,0.519 -0.426,0.527 -0.617,0.527 -0.806,0.518 -0.942,0.511 -1.029,0.417 -1.035,0.28 c -0.007,-0.181 -0.007,-0.363 0,-0.545 0.006,-0.15 0.097,-0.242 0.247,-0.249 0.177,-0.008 0.354,-0.007 0.531,-0.001 0.156,0.006 0.246,0.1 0.256,0.256 C 0.004,-0.173 0,-0.086 0,0 m 2.077,0.011 0,0 c 0,0.077 0.002,0.155 0,0.233 C 2.071,0.422 1.98,0.517 1.804,0.522 1.636,0.527 1.467,0.527 1.298,0.521 1.141,0.516 1.046,0.423 1.041,0.269 c -0.007,-0.177 -0.007,-0.354 0,-0.531 0.007,-0.156 0.101,-0.247 0.258,-0.253 0.172,-0.006 0.346,-0.007 0.518,0 0.163,0.007 0.251,0.102 0.259,0.266 0.004,0.086 10e-4,0.173 10e-4,0.26 m 1.039,0.007 0,0 c 0,-0.091 -0.004,-0.182 0,-0.272 0.009,-0.158 0.097,-0.254 0.251,-0.26 0.177,-0.008 0.355,-0.007 0.532,0 0.156,0.006 0.247,0.1 0.253,0.257 C 4.158,-0.08 4.158,0.098 4.151,0.275 4.146,0.418 4.056,0.513 3.914,0.519 3.729,0.527 3.542,0.527 3.357,0.519 3.214,0.513 3.127,0.42 3.117,0.277 3.111,0.191 3.116,0.104 3.116,0.018 m -5.707,-1.572 0,0 c -0.086,0 -0.173,0.004 -0.259,-10e-4 -0.164,-0.008 -0.258,-0.099 -0.263,-0.261 -0.005,-0.172 -0.006,-0.346 10e-4,-0.518 0.005,-0.157 0.098,-0.25 0.254,-0.257 0.172,-0.007 0.346,-0.007 0.518,-10e-4 0.164,0.006 0.257,0.099 0.262,0.262 0.007,0.173 0.006,0.346 10e-4,0.519 -0.005,0.156 -0.098,0.246 -0.255,0.256 -0.086,0.005 -0.172,10e-4 -0.259,10e-4 m 1.553,-0.51 0.001,0 c 0,-0.091 -0.005,-0.182 10e-4,-0.272 0.009,-0.156 0.1,-0.25 0.256,-0.255 0.177,-0.007 0.354,-0.007 0.531,0.001 0.15,0.007 0.241,0.099 0.247,0.249 0.007,0.182 0.007,0.364 0,0.545 -0.006,0.142 -0.098,0.233 -0.242,0.239 -0.181,0.008 -0.363,0.008 -0.545,10e-4 -0.154,-0.007 -0.241,-0.104 -0.248,-0.261 -0.004,-0.082 -0.001,-0.165 -0.001,-0.247 m 3.115,-0.008 0,0 c 0,0.087 0.004,0.173 -10e-4,0.26 -0.008,0.156 -0.097,0.25 -0.253,0.256 -0.177,0.007 -0.355,0.007 -0.532,0 C 1.136,-1.562 1.045,-1.658 1.04,-1.814 1.035,-1.987 1.034,-2.16 1.041,-2.333 c 0.006,-0.158 0.096,-0.251 0.252,-0.258 0.177,-0.007 0.355,-0.007 0.532,0 0.155,0.007 0.242,0.102 0.251,0.26 0.005,0.086 10e-4,0.173 10e-4,0.259 m 2.076,-0.007 0.001,0 c 0,0.082 0.002,0.165 0,0.247 C 4.148,-1.655 4.057,-1.559 3.881,-1.554 3.712,-1.55 3.543,-1.549 3.375,-1.555 3.218,-1.561 3.122,-1.653 3.117,-1.807 3.111,-1.984 3.111,-2.162 3.118,-2.339 c 0.006,-0.15 0.096,-0.244 0.245,-0.251 0.181,-0.008 0.363,-0.008 0.544,0 0.149,0.007 0.235,0.101 0.245,0.252 0.005,0.086 10e-4,0.173 10e-4,0.259 M -2.59,-3.631 c -0.09,0 -0.181,0.005 -0.272,-0.001 -0.15,-0.009 -0.244,-0.098 -0.25,-0.246 -0.006,-0.181 -0.007,-0.363 10e-4,-0.544 0.007,-0.149 0.1,-0.239 0.251,-0.245 0.177,-0.007 0.355,-0.008 0.532,0 0.155,0.007 0.245,0.102 0.25,0.26 0.006,0.172 0.006,0.346 10e-4,0.518 -0.005,0.156 -0.098,0.248 -0.253,0.257 -0.086,0.006 -0.173,0.001 -0.26,0.001 m 2.065,10e-4 c -0.082,0 -0.164,0.003 -0.246,-10e-4 -0.169,-0.008 -0.262,-0.101 -0.266,-0.271 -0.004,-0.165 -0.004,-0.329 0,-0.493 0.005,-0.171 0.097,-0.267 0.265,-0.273 0.169,-0.006 0.337,-0.006 0.506,0 0.164,0.005 0.259,0.097 0.265,0.259 0.006,0.173 0.006,0.346 0,0.519 -0.005,0.161 -0.1,0.251 -0.264,0.259 -0.087,0.004 -0.173,10e-4 -0.26,10e-4 m 1.564,-0.51 0.001,0 c 0,-0.091 -0.005,-0.182 10e-4,-0.272 0.009,-0.157 0.098,-0.25 0.255,-0.256 0.177,-0.006 0.355,-0.007 0.532,0.001 0.149,0.007 0.241,0.1 0.246,0.25 0.007,0.181 0.008,0.363 0,0.544 -0.006,0.142 -0.098,0.234 -0.241,0.24 -0.182,0.007 -0.364,0.007 -0.545,0 -0.154,-0.006 -0.241,-0.103 -0.249,-0.261 -0.003,-0.082 0,-0.164 0,-0.246 m 3.114,-0.015 0.001,0 c 0,0.082 0.002,0.164 -0.001,0.246 C 4.148,-3.731 4.057,-3.636 3.88,-3.631 3.712,-3.626 3.543,-3.626 3.375,-3.632 3.218,-3.637 3.122,-3.73 3.117,-3.884 3.111,-4.061 3.111,-4.238 3.118,-4.415 3.124,-4.566 3.214,-4.66 3.363,-4.666 c 0.181,-0.008 0.363,-0.008 0.544,0 0.149,0.007 0.234,0.1 0.245,0.251 0.005,0.087 10e-4,0.173 10e-4,0.26 m -6.229,-2.071 0,0 c 0,0.083 0.003,0.165 0,0.247 -0.006,0.17 -0.097,0.266 -0.266,0.271 -0.169,0.006 -0.337,0.005 -0.506,0 -0.164,-0.005 -0.26,-0.097 -0.265,-0.258 -0.005,-0.173 -0.005,-0.346 10e-4,-0.519 0.005,-0.157 0.096,-0.252 0.251,-0.259 0.177,-0.007 0.355,-0.007 0.532,0 0.155,0.007 0.243,0.102 0.252,0.259 0.005,0.086 10e-4,0.173 10e-4,0.259 m 3.64,-1.558 0,10e-4 c -0.082,0 -0.164,0 -0.246,0 -0.009,0 -0.017,0 -0.026,-10e-4 C 1.141,-7.797 1.047,-7.882 1.041,-8.03 1.034,-8.211 1.034,-8.393 1.042,-8.574 c 0.007,-0.149 0.099,-0.24 0.25,-0.246 0.177,-0.007 0.355,-0.007 0.532,0 0.15,0.006 0.243,0.097 0.25,0.246 0.008,0.181 0.007,0.363 0,0.544 -0.005,0.148 -0.099,0.236 -0.25,0.245 -0.086,0.006 -0.173,0.001 -0.26,0.001 m -2.084,1.038 0,0 c 0.082,0 0.164,-0.003 0.246,0 0.171,0.007 0.268,0.098 0.273,0.266 0.006,0.172 0.006,0.346 0,0.518 -0.005,0.151 -0.095,0.246 -0.244,0.252 -0.181,0.008 -0.363,0.008 -0.544,0.001 -0.15,-0.006 -0.241,-0.1 -0.247,-0.249 -0.006,-0.177 -0.006,-0.355 0.001,-0.532 0.005,-0.155 0.099,-0.245 0.255,-0.255 0.086,-0.005 0.173,-0.001 0.26,-0.001 m 2.084,1.039 0,0 C 1.482,-5.706 1.4,-5.706 1.318,-5.706 1.309,-5.706 1.301,-5.707 1.292,-5.707 1.141,-5.72 1.047,-5.806 1.041,-5.953 1.034,-6.135 1.034,-6.317 1.042,-6.498 c 0.007,-0.149 0.099,-0.239 0.25,-0.246 0.177,-0.007 0.355,-0.007 0.532,0 0.15,0.007 0.243,0.097 0.25,0.246 0.008,0.181 0.007,0.363 0,0.545 -0.005,0.148 -0.099,0.235 -0.25,0.245 -0.086,0.005 -0.173,0.001 -0.26,0.001 m 1.551,-0.507 c 0,-0.087 -0.003,-0.173 10e-4,-0.26 0.008,-0.17 0.098,-0.265 0.267,-0.271 0.169,-0.005 0.338,-0.006 0.506,0 0.164,0.006 0.257,0.099 0.263,0.262 0.006,0.172 0.006,0.346 0,0.518 -0.005,0.156 -0.097,0.251 -0.254,0.256 -0.176,0.007 -0.354,0.007 -0.531,0 C 3.212,-5.715 3.124,-5.811 3.116,-5.968 3.112,-6.05 3.115,-6.132 3.115,-6.214 m -3.537,-1.569 0,-10e-4 c -0.091,0 -2.347,0.005 -2.437,-0.001 -0.156,-0.009 -0.249,-0.1 -0.254,-0.256 -0.005,-0.173 -0.006,-0.346 0,-0.519 0.006,-0.162 0.1,-0.256 0.263,-0.261 0.169,-0.006 2.502,-0.006 2.671,0 0.169,0.005 0.262,0.1 0.267,0.271 0.005,0.168 0.005,0.337 0,0.505 -0.005,0.162 -0.1,0.253 -0.264,0.261 -0.082,0.004 -0.164,10e-4 -0.246,10e-4 m 4.057,0 c -0.086,0 -0.173,0.004 -0.259,-10e-4 -0.163,-0.009 -0.255,-0.102 -0.26,-0.265 -0.004,-0.168 -0.005,-0.337 10e-4,-0.505 0.005,-0.165 0.096,-0.26 0.257,-0.267 0.173,-0.007 0.346,-0.006 0.519,0 0.157,0.006 0.252,0.097 0.258,0.253 0.007,0.176 0.007,0.354 0.001,0.531 -0.006,0.154 -0.101,0.244 -0.258,0.253 -0.086,0.005 -0.173,10e-4 -0.259,10e-4 m -5.711,7.785 0,0 c 0,0.082 0.003,0.165 0,0.247 -0.006,0.17 -0.096,0.267 -0.264,0.272 -0.173,0.006 -0.346,0.006 -0.519,0 -0.156,-0.006 -0.249,-0.1 -0.254,-0.256 -0.005,-0.173 -0.005,-0.346 0,-0.519 0.006,-0.158 0.096,-0.253 0.25,-0.26 0.177,-0.008 0.355,-0.007 0.532,0 0.156,0.006 0.244,0.1 0.254,0.257 0.005,0.086 10e-4,0.173 10e-4,0.259 m -2.387,-3.114 c 0,2.214 0,5.104 0,7.319 0,0.428 0.196,0.623 0.628,0.623 3.387,0 5.424,0 8.811,0 0.437,0 0.631,-0.195 0.631,-0.634 0,-4.425 0,-9.317 0,-13.742 0,-0.427 -0.199,-0.624 -0.629,-0.624 -3.387,0 -5.424,0 -8.811,0 -0.435,0 -0.63,0.196 -0.63,0.634 0,2.21 0,4.213 0,6.424"
             style="fill:#e6e6e6;fill-opacity:1;fill-rule:nonzero;stroke:none"
             id="path3049" /></g><g
           id="g3051"
           transform="translate(3.5762,0.9985)"><path
             d="m 0,0 14.848,0 c 0.011,0.001 0.023,0.003 0.035,0.003 0.764,0.054 2.542,0.418 2.542,2.652 l 0,14.692 c 0,2.234 -1.778,2.598 -2.542,2.652 -0.014,0.001 -0.028,0.002 -0.042,0.004 l -14.835,0 C -0.007,20.001 -0.021,20 -0.035,19.999 -0.8,19.945 -2.578,19.581 -2.578,17.347 l 0,-14.692 C -2.578,0.421 -0.8,0.057 -0.035,0.003 -0.023,0.003 -0.012,0.001 0,0 m 14.917,-0.997 -14.987,0 c -0.037,0 -0.073,0.004 -0.108,0.012 -1.656,0.14 -3.397,1.166 -3.397,3.64 l 0,14.692 c 0,2.472 1.738,3.498 3.392,3.64 C -0.146,20.996 -0.108,21 -0.07,21 l 14.987,0 c 0.04,0 0.079,-0.005 0.115,-0.013 1.655,-0.143 3.39,-1.17 3.39,-3.64 l 0,-14.692 c 0,-2.475 -1.742,-3.5 -3.398,-3.64 -0.034,-0.008 -0.07,-0.012 -0.107,-0.012"
             style="fill:#e6e6e6;fill-opacity:1;fill-rule:nonzero;stroke:none"
             id="path3053" /></g></g></g></g></svg>